<svg xmlns="http://www.w3.org/2000/svg" xmlns:xlink="http://www.w3.org/1999/xlink" width="500" zoomAndPan="magnify" viewBox="0 0 375 374.999991" height="500" preserveAspectRatio="xMidYMid meet" version="1.0"><defs><g/><clipPath id="42ba07830e"><path d="M 112.5 65.464844 L 262.5 65.464844 L 262.5 214.714844 L 112.5 214.714844 Z M 112.5 65.464844 " clip-rule="nonzero"/></clipPath></defs><g fill="#4e4e4e" fill-opacity="1"><g transform="translate(49.421043, 258.815296)"><g><path d="M 17.828125 -14.296875 C 17.828125 -11.148438 17.300781 -8.5 16.25 -6.34375 C 15.195312 -4.1875 13.5 -2.550781 11.15625 -1.4375 C 8.8125 -0.320312 5.691406 0.234375 1.796875 0.234375 C 1.578125 0.234375 1.347656 0.222656 1.109375 0.203125 C 0.867188 0.191406 0.625 0.1875 0.375 0.1875 L 0.375 -4.296875 C 0.65625 -4.265625 0.9375 -4.25 1.21875 -4.25 C 1.507812 -4.25 1.78125 -4.25 2.03125 -4.25 C 4.863281 -4.25 7.078125 -4.65625 8.671875 -5.46875 C 10.273438 -6.289062 11.40625 -7.445312 12.0625 -8.9375 C 12.726562 -10.4375 13.0625 -12.222656 13.0625 -14.296875 L 13.0625 -28.921875 L 4.15625 -28.921875 L 4.15625 -33.25 L 17.828125 -33.25 Z M 17.828125 -14.296875 "/></g></g></g><g fill="#4e4e4e" fill-opacity="1"><g transform="translate(70.412362, 258.815296)"><g><path d="M 20.5625 -24.484375 C 20.34375 -25.453125 19.882812 -26.242188 19.1875 -26.859375 C 18.5 -27.472656 17.691406 -27.929688 16.765625 -28.234375 C 15.835938 -28.535156 14.90625 -28.6875 13.96875 -28.6875 C 12.832031 -28.6875 11.695312 -28.488281 10.5625 -28.09375 C 9.4375 -27.695312 8.523438 -27.0625 7.828125 -26.1875 C 7.546875 -25.832031 7.34375 -25.425781 7.21875 -24.96875 C 7.09375 -24.519531 7.03125 -24.054688 7.03125 -23.578125 C 7.03125 -22.328125 7.398438 -21.382812 8.140625 -20.75 C 8.878906 -20.125 9.820312 -19.703125 10.96875 -19.484375 C 12.113281 -19.265625 13.300781 -19.09375 14.53125 -18.96875 C 15.664062 -18.84375 16.828125 -18.644531 18.015625 -18.375 C 19.210938 -18.101562 20.351562 -17.71875 21.4375 -17.21875 C 22.519531 -16.71875 23.460938 -16.039062 24.265625 -15.1875 C 25.066406 -14.34375 25.625 -13.257812 25.9375 -11.9375 C 26.101562 -11.144531 26.1875 -10.421875 26.1875 -9.765625 C 26.1875 -8.160156 25.832031 -6.734375 25.125 -5.484375 C 24.414062 -4.242188 23.46875 -3.191406 22.28125 -2.328125 C 21.101562 -1.460938 19.78125 -0.8125 18.3125 -0.375 C 16.851562 0.0625 15.390625 0.28125 13.921875 0.28125 C 12.660156 0.28125 11.359375 0.09375 10.015625 -0.28125 C 8.679688 -0.65625 7.441406 -1.210938 6.296875 -1.953125 C 5.148438 -2.691406 4.191406 -3.617188 3.421875 -4.734375 C 2.648438 -5.859375 2.1875 -7.15625 2.03125 -8.625 L 1.984375 -9.53125 L 6.796875 -9.625 L 6.84375 -8.921875 L 6.84375 -9.109375 C 6.96875 -8.097656 7.398438 -7.238281 8.140625 -6.53125 C 8.878906 -5.820312 9.78125 -5.296875 10.84375 -4.953125 C 11.914062 -4.609375 12.957031 -4.4375 13.96875 -4.4375 C 15.15625 -4.4375 16.316406 -4.644531 17.453125 -5.0625 C 18.585938 -5.488281 19.523438 -6.101562 20.265625 -6.90625 C 21.003906 -7.707031 21.375 -8.675781 21.375 -9.8125 C 21.375 -10.15625 21.328125 -10.53125 21.234375 -10.9375 C 21.035156 -11.789062 20.566406 -12.425781 19.828125 -12.84375 C 19.097656 -13.269531 18.210938 -13.578125 17.171875 -13.765625 C 16.128906 -13.960938 15.0625 -14.109375 13.96875 -14.203125 C 12.675781 -14.328125 11.367188 -14.519531 10.046875 -14.78125 C 8.722656 -15.050781 7.492188 -15.484375 6.359375 -16.078125 C 5.234375 -16.679688 4.300781 -17.507812 3.5625 -18.5625 C 2.820312 -19.613281 2.390625 -21.003906 2.265625 -22.734375 L 2.265625 -22.6875 C 2.265625 -22.84375 2.253906 -22.984375 2.234375 -23.109375 C 2.222656 -23.234375 2.21875 -23.359375 2.21875 -23.484375 C 2.21875 -25.535156 2.832031 -27.363281 4.0625 -28.96875 C 5.15625 -30.414062 6.613281 -31.503906 8.4375 -32.234375 C 10.269531 -32.972656 12.144531 -33.34375 14.0625 -33.34375 C 15.757812 -33.34375 17.414062 -33.035156 19.03125 -32.421875 C 20.65625 -31.816406 22.03125 -30.875 23.15625 -29.59375 C 24.289062 -28.320312 25 -26.679688 25.28125 -24.671875 Z M 20.5625 -24.484375 "/></g></g></g><g fill="#4e4e4e" fill-opacity="1"><g transform="translate(98.007714, 258.815296)"><g/></g></g><g fill="#4e4e4e" fill-opacity="1"><g transform="translate(109.281671, 258.815296)"><g><path d="M 16.125 -33.015625 C 18.519531 -33.015625 20.503906 -32.476562 22.078125 -31.40625 C 23.648438 -30.34375 24.835938 -28.96875 25.640625 -27.28125 C 26.441406 -25.601562 26.84375 -23.835938 26.84375 -21.984375 C 26.84375 -20.160156 26.441406 -18.40625 25.640625 -16.71875 C 24.835938 -15.039062 23.648438 -13.664062 22.078125 -12.59375 C 20.503906 -11.519531 18.519531 -10.984375 16.125 -10.984375 L 8.875 -10.984375 L 8.875 0 L 4.0625 0 L 4.0625 -33.015625 Z M 16.125 -15.703125 C 17.476562 -15.703125 18.59375 -16.007812 19.46875 -16.625 C 20.351562 -17.238281 21.015625 -18.015625 21.453125 -18.953125 C 21.898438 -19.898438 22.125 -20.894531 22.125 -21.9375 C 22.125 -23 21.898438 -24.003906 21.453125 -24.953125 C 21.015625 -25.898438 20.351562 -26.675781 19.46875 -27.28125 C 18.59375 -27.894531 17.476562 -28.203125 16.125 -28.203125 L 8.875 -28.203125 L 8.875 -15.703125 Z M 16.125 -15.703125 "/></g></g></g><g fill="#4e4e4e" fill-opacity="1"><g transform="translate(136.829857, 258.815296)"><g><path d="M 16.078125 -16.75 C 17.429688 -16.75 18.546875 -17.03125 19.421875 -17.59375 C 20.304688 -18.15625 20.96875 -18.875 21.40625 -19.75 C 21.851562 -20.632812 22.078125 -21.550781 22.078125 -22.5 C 22.078125 -23.445312 21.851562 -24.390625 21.40625 -25.328125 C 20.96875 -26.273438 20.304688 -27.0625 19.421875 -27.6875 C 18.546875 -28.320312 17.429688 -28.640625 16.078125 -28.640625 L 8.78125 -28.640625 L 8.78125 0 L 4.0625 0 L 4.0625 -33.4375 L 16.078125 -33.4375 C 17.878906 -33.4375 19.453125 -33.113281 20.796875 -32.46875 C 22.148438 -31.832031 23.273438 -30.984375 24.171875 -29.921875 C 25.066406 -28.867188 25.734375 -27.695312 26.171875 -26.40625 C 26.617188 -25.125 26.84375 -23.820312 26.84375 -22.5 C 26.84375 -20.957031 26.523438 -19.46875 25.890625 -18.03125 C 25.265625 -16.601562 24.316406 -15.394531 23.046875 -14.40625 C 21.773438 -13.414062 20.191406 -12.75 18.296875 -12.40625 L 28.734375 0 L 22.546875 0 L 10.515625 -14.484375 L 10.515625 -16.75 Z M 16.078125 -16.75 "/></g></g></g><g fill="#4e4e4e" fill-opacity="1"><g transform="translate(164.472376, 258.815296)"><g><path d="M 1.65625 -16.515625 C 1.65625 -18.898438 2.09375 -21.128906 2.96875 -23.203125 C 3.851562 -25.285156 5.082031 -27.113281 6.65625 -28.6875 C 8.226562 -30.257812 10.039062 -31.484375 12.09375 -32.359375 C 14.15625 -33.242188 16.382812 -33.6875 18.78125 -33.6875 C 21.164062 -33.6875 23.394531 -33.242188 25.46875 -32.359375 C 27.550781 -31.484375 29.375 -30.257812 30.9375 -28.6875 C 32.507812 -27.113281 33.734375 -25.285156 34.609375 -23.203125 C 35.492188 -21.128906 35.9375 -18.898438 35.9375 -16.515625 C 35.9375 -14.117188 35.492188 -11.890625 34.609375 -9.828125 C 33.734375 -7.773438 32.507812 -5.960938 30.9375 -4.390625 C 29.375 -2.816406 27.550781 -1.585938 25.46875 -0.703125 C 23.394531 0.171875 21.164062 0.609375 18.78125 0.609375 C 16.382812 0.609375 14.15625 0.171875 12.09375 -0.703125 C 10.039062 -1.585938 8.226562 -2.816406 6.65625 -4.390625 C 5.082031 -5.960938 3.851562 -7.773438 2.96875 -9.828125 C 2.09375 -11.890625 1.65625 -14.117188 1.65625 -16.515625 Z M 6.5625 -16.515625 C 6.5625 -14.242188 7.109375 -12.1875 8.203125 -10.34375 C 9.304688 -8.507812 10.773438 -7.039062 12.609375 -5.9375 C 14.453125 -4.84375 16.507812 -4.296875 18.78125 -4.296875 C 21.039062 -4.296875 23.097656 -4.84375 24.953125 -5.9375 C 26.804688 -7.039062 28.285156 -8.507812 29.390625 -10.34375 C 30.492188 -12.1875 31.046875 -14.242188 31.046875 -16.515625 C 31.046875 -18.773438 30.492188 -20.832031 29.390625 -22.6875 C 28.285156 -24.539062 26.804688 -26.019531 24.953125 -27.125 C 23.097656 -28.226562 21.039062 -28.78125 18.78125 -28.78125 C 16.507812 -28.78125 14.453125 -28.226562 12.609375 -27.125 C 10.773438 -26.019531 9.304688 -24.539062 8.203125 -22.6875 C 7.109375 -20.832031 6.5625 -18.773438 6.5625 -16.515625 Z M 6.5625 -16.515625 "/></g></g></g><g fill="#4e4e4e" fill-opacity="1"><g transform="translate(201.926606, 258.815296)"><g><path d="M 15.890625 -33.296875 C 18.597656 -33.296875 20.960938 -32.816406 22.984375 -31.859375 C 25.015625 -30.898438 26.707031 -29.609375 28.0625 -27.984375 C 29.414062 -26.367188 30.429688 -24.5625 31.109375 -22.5625 C 31.785156 -20.570312 32.125 -18.539062 32.125 -16.46875 C 32.125 -14.382812 31.785156 -12.367188 31.109375 -10.421875 C 30.429688 -8.472656 29.414062 -6.710938 28.0625 -5.140625 C 26.707031 -3.566406 25.015625 -2.316406 22.984375 -1.390625 C 20.960938 -0.460938 18.597656 0 15.890625 0 L 4.0625 0 L 4.0625 -33.296875 Z M 15.890625 -4.765625 C 18.441406 -4.765625 20.570312 -5.328125 22.28125 -6.453125 C 24 -7.585938 25.28125 -9.050781 26.125 -10.84375 C 26.976562 -12.632812 27.40625 -14.507812 27.40625 -16.46875 C 27.40625 -17.945312 27.160156 -19.390625 26.671875 -20.796875 C 26.179688 -22.210938 25.457031 -23.507812 24.5 -24.6875 C 23.539062 -25.875 22.347656 -26.8125 20.921875 -27.5 C 19.492188 -28.1875 17.816406 -28.53125 15.890625 -28.53125 L 8.828125 -28.53125 L 8.828125 -4.765625 Z M 15.890625 -4.765625 "/></g></g></g><g fill="#4e4e4e" fill-opacity="1"><g transform="translate(235.654277, 258.815296)"><g><path d="M 14.953125 -28.921875 L 14.953125 -4.4375 L 21.078125 -4.4375 L 21.078125 0 L 4.0625 0 L 4.0625 -4.4375 L 10.1875 -4.4375 L 10.1875 -28.921875 L 4.0625 -28.921875 L 4.0625 -33.296875 L 21.078125 -33.296875 L 21.078125 -28.921875 Z M 14.953125 -28.921875 "/></g></g></g><g fill="#4e4e4e" fill-opacity="1"><g transform="translate(260.277797, 258.815296)"><g><path d="M 29.390625 -21.421875 C 28.953125 -23.242188 28.140625 -24.679688 26.953125 -25.734375 C 25.773438 -26.785156 24.4375 -27.539062 22.9375 -28 C 21.445312 -28.457031 19.976562 -28.6875 18.53125 -28.6875 C 16.332031 -28.6875 14.351562 -28.15625 12.59375 -27.09375 C 10.832031 -26.039062 9.429688 -24.59375 8.390625 -22.75 C 7.359375 -20.914062 6.84375 -18.820312 6.84375 -16.46875 C 6.84375 -14.101562 7.359375 -11.984375 8.390625 -10.109375 C 9.429688 -8.242188 10.832031 -6.773438 12.59375 -5.703125 C 14.351562 -4.640625 16.332031 -4.109375 18.53125 -4.109375 C 19.914062 -4.109375 21.289062 -4.363281 22.65625 -4.875 C 24.03125 -5.394531 25.28125 -6.179688 26.40625 -7.234375 C 27.539062 -8.296875 28.441406 -9.644531 29.109375 -11.28125 L 16.65625 -11.28125 L 16.65625 -16.125 L 34.8125 -16.125 C 34.6875 -14.71875 34.5625 -13.53125 34.4375 -12.5625 C 34.3125 -11.601562 34.125 -10.84375 33.875 -10.28125 L 33.875 -10.328125 C 33.113281 -8.191406 31.90625 -6.304688 30.25 -4.671875 C 28.601562 -3.035156 26.75 -1.753906 24.6875 -0.828125 C 22.632812 0.0976562 20.582031 0.5625 18.53125 0.5625 C 16.175781 0.5625 13.992188 0.144531 11.984375 -0.6875 C 9.972656 -1.519531 8.21875 -2.695312 6.71875 -4.21875 C 5.226562 -5.75 4.066406 -7.550781 3.234375 -9.625 C 2.398438 -11.695312 1.984375 -13.976562 1.984375 -16.46875 C 1.984375 -18.945312 2.40625 -21.234375 3.25 -23.328125 C 4.101562 -25.421875 5.285156 -27.226562 6.796875 -28.75 C 8.304688 -30.28125 10.054688 -31.460938 12.046875 -32.296875 C 14.046875 -33.128906 16.207031 -33.546875 18.53125 -33.546875 C 20.132812 -33.546875 21.785156 -33.332031 23.484375 -32.90625 C 25.179688 -32.476562 26.785156 -31.789062 28.296875 -30.84375 C 29.804688 -29.90625 31.117188 -28.65625 32.234375 -27.09375 C 33.359375 -25.539062 34.140625 -23.648438 34.578125 -21.421875 Z M 29.390625 -21.421875 "/></g></g></g><g fill="#4e4e4e" fill-opacity="1"><g transform="translate(297.118812, 258.815296)"><g><path d="M 14.203125 -18.484375 L 23.578125 -33.640625 L 29.25 -33.640625 L 16.609375 -13.4375 L 16.609375 0 L 11.796875 0 L 11.796875 -13.4375 L -0.703125 -33.640625 L 4.90625 -33.640625 Z M 14.203125 -18.484375 "/></g></g></g><g fill="#4588ff" fill-opacity="1"><g transform="translate(57.517852, 281.159221)"><g><path d="M 1.390625 0 L 1.390625 -5.53125 L 0.390625 -5.53125 L 0.390625 -6.5625 L 1.390625 -6.5625 C 1.390625 -7.269531 1.570312 -7.773438 1.9375 -8.078125 C 2.3125 -8.390625 2.851562 -8.546875 3.5625 -8.546875 C 3.632812 -8.546875 3.707031 -8.546875 3.78125 -8.546875 C 3.863281 -8.546875 3.945312 -8.539062 4.03125 -8.53125 L 4.03125 -7.546875 C 3.957031 -7.554688 3.882812 -7.5625 3.8125 -7.5625 C 3.738281 -7.5625 3.671875 -7.5625 3.609375 -7.5625 C 3.296875 -7.5625 3.039062 -7.492188 2.84375 -7.359375 C 2.65625 -7.222656 2.5625 -6.957031 2.5625 -6.5625 L 3.890625 -6.5625 L 3.890625 -5.53125 L 2.5625 -5.53125 L 2.5625 0 Z M 1.390625 0 "/></g></g></g><g fill="#4588ff" fill-opacity="1"><g transform="translate(61.738078, 281.159221)"><g><path d="M 5.703125 -0.859375 C 5.460938 -0.503906 5.164062 -0.253906 4.8125 -0.109375 C 4.457031 0.0234375 4.066406 0.09375 3.640625 0.09375 C 2.984375 0.09375 2.445312 -0.03125 2.03125 -0.28125 C 1.613281 -0.539062 1.304688 -0.90625 1.109375 -1.375 C 0.910156 -1.84375 0.8125 -2.390625 0.8125 -3.015625 L 0.8125 -6.5625 L 2 -6.5625 L 2 -3.015625 C 2 -2.609375 2.046875 -2.25 2.140625 -1.9375 C 2.234375 -1.625 2.398438 -1.378906 2.640625 -1.203125 C 2.890625 -1.035156 3.253906 -0.953125 3.734375 -0.953125 C 4.347656 -0.953125 4.816406 -1.144531 5.140625 -1.53125 C 5.472656 -1.925781 5.640625 -2.40625 5.640625 -2.96875 L 5.640625 -6.5625 L 6.828125 -6.5625 L 6.828125 0 L 5.703125 0 Z M 5.703125 -0.859375 "/></g></g></g><g fill="#4588ff" fill-opacity="1"><g transform="translate(69.481185, 281.159221)"><g><path d="M 0.90625 0 L 0.90625 -8.421875 L 2.078125 -8.421875 L 2.078125 0 Z M 0.90625 0 "/></g></g></g><g fill="#4588ff" fill-opacity="1"><g transform="translate(72.463, 281.159221)"><g><path d="M 0.90625 0 L 0.90625 -8.421875 L 2.078125 -8.421875 L 2.078125 0 Z M 0.90625 0 "/></g></g></g><g fill="#4588ff" fill-opacity="1"><g transform="translate(75.444815, 281.159221)"><g/></g></g><g fill="#4588ff" fill-opacity="1"><g transform="translate(78.438658, 281.159221)"><g><path d="M 1.71875 -4.625 C 1.71875 -4.425781 1.765625 -4.269531 1.859375 -4.15625 C 1.960938 -4.050781 2.09375 -3.972656 2.25 -3.921875 C 2.414062 -3.867188 2.582031 -3.835938 2.75 -3.828125 C 2.925781 -3.816406 3.085938 -3.804688 3.234375 -3.796875 C 3.535156 -3.773438 3.84375 -3.726562 4.15625 -3.65625 C 4.46875 -3.59375 4.75 -3.488281 5 -3.34375 C 5.257812 -3.207031 5.46875 -3.015625 5.625 -2.765625 C 5.78125 -2.523438 5.859375 -2.222656 5.859375 -1.859375 C 5.859375 -1.472656 5.773438 -1.15625 5.609375 -0.90625 C 5.441406 -0.65625 5.222656 -0.453125 4.953125 -0.296875 C 4.691406 -0.148438 4.398438 -0.046875 4.078125 0.015625 C 3.753906 0.078125 3.441406 0.109375 3.140625 0.109375 C 2.691406 0.109375 2.269531 0.0390625 1.875 -0.09375 C 1.476562 -0.226562 1.148438 -0.453125 0.890625 -0.765625 C 0.628906 -1.078125 0.484375 -1.488281 0.453125 -2 L 1.640625 -2 C 1.660156 -1.632812 1.816406 -1.363281 2.109375 -1.1875 C 2.410156 -1.007812 2.765625 -0.921875 3.171875 -0.921875 C 3.367188 -0.921875 3.582031 -0.945312 3.8125 -1 C 4.039062 -1.050781 4.242188 -1.144531 4.421875 -1.28125 C 4.597656 -1.414062 4.6875 -1.613281 4.6875 -1.875 C 4.6875 -2.0625 4.628906 -2.207031 4.515625 -2.3125 C 4.410156 -2.425781 4.269531 -2.507812 4.09375 -2.5625 C 3.925781 -2.625 3.753906 -2.664062 3.578125 -2.6875 C 3.410156 -2.71875 3.253906 -2.738281 3.109375 -2.75 C 2.816406 -2.757812 2.519531 -2.796875 2.21875 -2.859375 C 1.914062 -2.921875 1.640625 -3.019531 1.390625 -3.15625 C 1.140625 -3.289062 0.9375 -3.472656 0.78125 -3.703125 C 0.625 -3.941406 0.546875 -4.242188 0.546875 -4.609375 C 0.546875 -5.109375 0.675781 -5.503906 0.9375 -5.796875 C 1.195312 -6.097656 1.523438 -6.3125 1.921875 -6.4375 C 2.328125 -6.570312 2.738281 -6.640625 3.15625 -6.640625 C 3.582031 -6.640625 3.976562 -6.570312 4.34375 -6.4375 C 4.71875 -6.3125 5.023438 -6.109375 5.265625 -5.828125 C 5.503906 -5.554688 5.640625 -5.191406 5.671875 -4.734375 L 4.5 -4.734375 C 4.46875 -5.015625 4.316406 -5.222656 4.046875 -5.359375 C 3.773438 -5.503906 3.460938 -5.578125 3.109375 -5.578125 C 2.753906 -5.578125 2.429688 -5.503906 2.140625 -5.359375 C 1.859375 -5.210938 1.71875 -4.96875 1.71875 -4.625 Z M 1.71875 -4.625 "/></g></g></g><g fill="#4588ff" fill-opacity="1"><g transform="translate(84.702879, 281.159221)"><g><path d="M 2.4375 -6.515625 L 3.875 -6.515625 L 3.875 -5.578125 L 2.4375 -5.578125 L 2.4375 -1.90625 C 2.4375 -1.519531 2.523438 -1.265625 2.703125 -1.140625 C 2.878906 -1.015625 3.117188 -0.953125 3.421875 -0.953125 C 3.492188 -0.953125 3.570312 -0.953125 3.65625 -0.953125 C 3.738281 -0.960938 3.820312 -0.96875 3.90625 -0.96875 L 3.90625 0.015625 C 3.8125 0.0234375 3.71875 0.03125 3.625 0.03125 C 3.539062 0.03125 3.457031 0.03125 3.375 0.03125 C 2.945312 0.03125 2.570312 -0.0234375 2.25 -0.140625 C 1.9375 -0.253906 1.691406 -0.453125 1.515625 -0.734375 C 1.347656 -1.015625 1.265625 -1.40625 1.265625 -1.90625 L 1.265625 -5.578125 L 0.28125 -5.578125 L 0.28125 -6.515625 L 1.265625 -6.515625 L 1.265625 -7.71875 L 2.4375 -7.953125 Z M 2.4375 -6.515625 "/></g></g></g><g fill="#4588ff" fill-opacity="1"><g transform="translate(88.838945, 281.159221)"><g><path d="M 7.65625 0 L 6.484375 0 L 6.484375 -0.875 C 6.328125 -0.644531 6.117188 -0.457031 5.859375 -0.3125 C 5.597656 -0.164062 5.316406 -0.0625 5.015625 0 C 4.722656 0.0625 4.4375 0.0976562 4.15625 0.109375 C 3.40625 0.109375 2.769531 -0.046875 2.25 -0.359375 C 1.726562 -0.679688 1.332031 -1.097656 1.0625 -1.609375 C 0.789062 -2.128906 0.65625 -2.6875 0.65625 -3.28125 C 0.65625 -3.863281 0.789062 -4.40625 1.0625 -4.90625 C 1.34375 -5.414062 1.742188 -5.828125 2.265625 -6.140625 C 2.785156 -6.460938 3.410156 -6.625 4.140625 -6.625 C 4.410156 -6.625 4.691406 -6.59375 4.984375 -6.53125 C 5.273438 -6.476562 5.550781 -6.382812 5.8125 -6.25 C 6.070312 -6.113281 6.300781 -5.910156 6.5 -5.640625 L 6.484375 -6.515625 L 7.65625 -6.515625 Z M 6.484375 -3.265625 C 6.484375 -3.785156 6.363281 -4.210938 6.125 -4.546875 C 5.894531 -4.890625 5.597656 -5.144531 5.234375 -5.3125 C 4.867188 -5.488281 4.503906 -5.578125 4.140625 -5.578125 C 3.660156 -5.578125 3.25 -5.472656 2.90625 -5.265625 C 2.5625 -5.066406 2.296875 -4.796875 2.109375 -4.453125 C 1.929688 -4.109375 1.84375 -3.71875 1.84375 -3.28125 C 1.84375 -2.875 1.929688 -2.488281 2.109375 -2.125 C 2.296875 -1.769531 2.5625 -1.484375 2.90625 -1.265625 C 3.25 -1.046875 3.660156 -0.9375 4.140625 -0.9375 C 4.503906 -0.9375 4.863281 -1.019531 5.21875 -1.1875 C 5.582031 -1.351562 5.882812 -1.609375 6.125 -1.953125 C 6.363281 -2.304688 6.484375 -2.742188 6.484375 -3.265625 Z M 6.484375 -3.265625 "/></g></g></g><g fill="#4588ff" fill-opacity="1"><g transform="translate(97.279408, 281.159221)"><g><path d="M 7.28125 -2.484375 C 7.175781 -1.898438 6.953125 -1.414062 6.609375 -1.03125 C 6.273438 -0.65625 5.875 -0.375 5.40625 -0.1875 C 4.945312 0 4.46875 0.09375 3.96875 0.09375 C 3.550781 0.09375 3.140625 0.0234375 2.734375 -0.109375 C 2.335938 -0.253906 1.976562 -0.46875 1.65625 -0.75 C 1.332031 -1.03125 1.078125 -1.378906 0.890625 -1.796875 C 0.703125 -2.210938 0.609375 -2.703125 0.609375 -3.265625 C 0.609375 -3.828125 0.703125 -4.316406 0.890625 -4.734375 C 1.078125 -5.148438 1.332031 -5.5 1.65625 -5.78125 C 1.988281 -6.0625 2.351562 -6.269531 2.75 -6.40625 C 3.15625 -6.550781 3.570312 -6.625 4 -6.625 C 4.488281 -6.625 4.960938 -6.523438 5.421875 -6.328125 C 5.878906 -6.140625 6.273438 -5.851562 6.609375 -5.46875 C 6.953125 -5.082031 7.175781 -4.601562 7.28125 -4.03125 L 6.0625 -4.03125 C 5.914062 -4.550781 5.648438 -4.9375 5.265625 -5.1875 C 4.878906 -5.445312 4.457031 -5.578125 4 -5.578125 C 3.644531 -5.578125 3.296875 -5.488281 2.953125 -5.3125 C 2.609375 -5.144531 2.328125 -4.890625 2.109375 -4.546875 C 1.898438 -4.210938 1.796875 -3.785156 1.796875 -3.265625 C 1.796875 -2.742188 1.898438 -2.304688 2.109375 -1.953125 C 2.328125 -1.609375 2.609375 -1.351562 2.953125 -1.1875 C 3.296875 -1.019531 3.648438 -0.9375 4.015625 -0.9375 C 4.460938 -0.9375 4.878906 -1.0625 5.265625 -1.3125 C 5.648438 -1.570312 5.914062 -1.960938 6.0625 -2.484375 Z M 7.28125 -2.484375 "/></g></g></g><g fill="#4588ff" fill-opacity="1"><g transform="translate(105.154762, 281.159221)"><g><path d="M 3.140625 -4.578125 L 4.9375 -6.515625 L 6.359375 -6.515625 L 3.734375 -3.703125 L 6.53125 -0.109375 L 6.53125 0 L 5.171875 0 L 2.984375 -2.890625 L 2.140625 -1.984375 L 2.140625 0 L 0.96875 0 L 0.96875 -8.421875 L 2.140625 -8.421875 L 2.140625 -3.390625 Z M 3.140625 -4.578125 "/></g></g></g><g fill="#4588ff" fill-opacity="1"><g transform="translate(111.851822, 281.159221)"><g/></g></g><g fill="#4588ff" fill-opacity="1"><g transform="translate(114.845664, 281.159221)"><g><path d="M 2.125 -4.734375 L 2.90625 -1.9375 L 4.203125 -6.515625 L 5.25 -6.515625 L 6.5625 -1.9375 L 7.328125 -4.734375 L 7.875 -6.515625 L 9.125 -6.515625 L 6.984375 0.046875 L 6.09375 0.046875 L 5.296875 -2.5 L 4.734375 -4.46875 L 4.15625 -2.5 L 3.359375 0.046875 L 2.46875 0.046875 L 0.34375 -6.515625 L 1.578125 -6.515625 Z M 2.125 -4.734375 "/></g></g></g><g fill="#4588ff" fill-opacity="1"><g transform="translate(124.272048, 281.159221)"><g><path d="M 7.296875 -3.53125 C 7.296875 -3.5 7.296875 -3.46875 7.296875 -3.4375 C 7.296875 -3.40625 7.296875 -3.367188 7.296875 -3.328125 C 7.296875 -3.203125 7.285156 -3.082031 7.265625 -2.96875 L 1.75 -2.96875 C 1.75 -2.539062 1.863281 -2.175781 2.09375 -1.875 C 2.320312 -1.570312 2.609375 -1.335938 2.953125 -1.171875 C 3.296875 -1.003906 3.628906 -0.921875 3.953125 -0.921875 C 4.347656 -0.921875 4.71875 -1.007812 5.0625 -1.1875 C 5.414062 -1.363281 5.691406 -1.640625 5.890625 -2.015625 L 7.09375 -2.015625 C 6.9375 -1.535156 6.691406 -1.132812 6.359375 -0.8125 C 6.035156 -0.5 5.660156 -0.265625 5.234375 -0.109375 C 4.816406 0.046875 4.382812 0.125 3.9375 0.125 C 3.519531 0.125 3.109375 0.0546875 2.703125 -0.078125 C 2.304688 -0.222656 1.945312 -0.4375 1.625 -0.71875 C 1.300781 -1 1.046875 -1.347656 0.859375 -1.765625 C 0.671875 -2.191406 0.578125 -2.6875 0.578125 -3.25 C 0.578125 -3.8125 0.671875 -4.300781 0.859375 -4.71875 C 1.046875 -5.132812 1.300781 -5.484375 1.625 -5.765625 C 1.945312 -6.046875 2.304688 -6.253906 2.703125 -6.390625 C 3.109375 -6.535156 3.523438 -6.609375 3.953125 -6.609375 C 4.492188 -6.609375 5.007812 -6.492188 5.5 -6.265625 C 6 -6.035156 6.410156 -5.691406 6.734375 -5.234375 C 7.066406 -4.785156 7.253906 -4.21875 7.296875 -3.53125 Z M 6.046875 -3.953125 C 5.972656 -4.335938 5.832031 -4.648438 5.625 -4.890625 C 5.414062 -5.128906 5.160156 -5.300781 4.859375 -5.40625 C 4.566406 -5.519531 4.265625 -5.578125 3.953125 -5.578125 C 3.640625 -5.578125 3.332031 -5.519531 3.03125 -5.40625 C 2.738281 -5.300781 2.476562 -5.128906 2.25 -4.890625 C 2.03125 -4.648438 1.882812 -4.335938 1.8125 -3.953125 Z M 6.046875 -3.953125 "/></g></g></g><g fill="#4588ff" fill-opacity="1"><g transform="translate(132.207529, 281.159221)"><g><path d="M 2.125 -5.671875 C 2.394531 -6.054688 2.722656 -6.3125 3.109375 -6.4375 C 3.503906 -6.5625 3.90625 -6.625 4.3125 -6.625 C 5.050781 -6.625 5.664062 -6.460938 6.15625 -6.140625 C 6.644531 -5.828125 7.015625 -5.414062 7.265625 -4.90625 C 7.523438 -4.40625 7.65625 -3.863281 7.65625 -3.28125 C 7.65625 -2.6875 7.53125 -2.128906 7.28125 -1.609375 C 7.039062 -1.097656 6.671875 -0.679688 6.171875 -0.359375 C 5.671875 -0.046875 5.039062 0.109375 4.28125 0.109375 C 3.882812 0.0976562 3.484375 0.0195312 3.078125 -0.125 C 2.671875 -0.269531 2.351562 -0.519531 2.125 -0.875 L 2.125 0 L 0.9375 0 L 0.9375 -8.421875 L 2.125 -8.421875 Z M 2.125 -3.265625 C 2.125 -2.742188 2.226562 -2.304688 2.4375 -1.953125 C 2.644531 -1.609375 2.914062 -1.351562 3.25 -1.1875 C 3.582031 -1.019531 3.929688 -0.9375 4.296875 -0.9375 C 4.773438 -0.9375 5.175781 -1.046875 5.5 -1.265625 C 5.820312 -1.492188 6.0625 -1.785156 6.21875 -2.140625 C 6.382812 -2.492188 6.46875 -2.867188 6.46875 -3.265625 C 6.46875 -3.648438 6.382812 -4.019531 6.21875 -4.375 C 6.0625 -4.726562 5.820312 -5.015625 5.5 -5.234375 C 5.1875 -5.460938 4.789062 -5.578125 4.3125 -5.578125 C 3.945312 -5.578125 3.59375 -5.488281 3.25 -5.3125 C 2.914062 -5.144531 2.644531 -4.890625 2.4375 -4.546875 C 2.226562 -4.210938 2.125 -3.785156 2.125 -3.265625 Z M 2.125 -3.265625 "/></g></g></g><g fill="#4588ff" fill-opacity="1"><g transform="translate(140.395502, 281.159221)"><g/></g></g><g fill="#4588ff" fill-opacity="1"><g transform="translate(143.389345, 281.159221)"><g><path d="M 7.296875 -8.421875 L 7.296875 0 L 6.125 0 L 6.125 -0.875 C 5.894531 -0.519531 5.578125 -0.269531 5.171875 -0.125 C 4.765625 0.0195312 4.359375 0.0976562 3.953125 0.109375 C 3.191406 0.109375 2.550781 -0.0351562 2.03125 -0.328125 C 1.519531 -0.628906 1.132812 -1.035156 0.875 -1.546875 C 0.613281 -2.066406 0.484375 -2.644531 0.484375 -3.28125 C 0.484375 -3.90625 0.613281 -4.46875 0.875 -4.96875 C 1.144531 -5.476562 1.539062 -5.878906 2.0625 -6.171875 C 2.582031 -6.472656 3.207031 -6.625 3.9375 -6.625 C 4.332031 -6.625 4.722656 -6.5625 5.109375 -6.4375 C 5.503906 -6.3125 5.84375 -6.054688 6.125 -5.671875 L 6.125 -8.421875 Z M 6.125 -3.265625 C 6.125 -3.785156 6.015625 -4.210938 5.796875 -4.546875 C 5.585938 -4.890625 5.316406 -5.144531 4.984375 -5.3125 C 4.648438 -5.488281 4.300781 -5.578125 3.9375 -5.578125 C 3.457031 -5.578125 3.046875 -5.460938 2.703125 -5.234375 C 2.367188 -5.015625 2.109375 -4.726562 1.921875 -4.375 C 1.742188 -4.019531 1.65625 -3.648438 1.65625 -3.265625 C 1.65625 -2.816406 1.742188 -2.414062 1.921875 -2.0625 C 2.097656 -1.71875 2.359375 -1.441406 2.703125 -1.234375 C 3.046875 -1.035156 3.453125 -0.9375 3.921875 -0.9375 C 4.285156 -0.9375 4.632812 -1.019531 4.96875 -1.1875 C 5.3125 -1.351562 5.585938 -1.609375 5.796875 -1.953125 C 6.015625 -2.304688 6.125 -2.742188 6.125 -3.265625 Z M 6.125 -3.265625 "/></g></g></g><g fill="#4588ff" fill-opacity="1"><g transform="translate(151.613389, 281.159221)"><g><path d="M 7.296875 -3.53125 C 7.296875 -3.5 7.296875 -3.46875 7.296875 -3.4375 C 7.296875 -3.40625 7.296875 -3.367188 7.296875 -3.328125 C 7.296875 -3.203125 7.285156 -3.082031 7.265625 -2.96875 L 1.75 -2.96875 C 1.75 -2.539062 1.863281 -2.175781 2.09375 -1.875 C 2.320312 -1.570312 2.609375 -1.335938 2.953125 -1.171875 C 3.296875 -1.003906 3.628906 -0.921875 3.953125 -0.921875 C 4.347656 -0.921875 4.71875 -1.007812 5.0625 -1.1875 C 5.414062 -1.363281 5.691406 -1.640625 5.890625 -2.015625 L 7.09375 -2.015625 C 6.9375 -1.535156 6.691406 -1.132812 6.359375 -0.8125 C 6.035156 -0.5 5.660156 -0.265625 5.234375 -0.109375 C 4.816406 0.046875 4.382812 0.125 3.9375 0.125 C 3.519531 0.125 3.109375 0.0546875 2.703125 -0.078125 C 2.304688 -0.222656 1.945312 -0.4375 1.625 -0.71875 C 1.300781 -1 1.046875 -1.347656 0.859375 -1.765625 C 0.671875 -2.191406 0.578125 -2.6875 0.578125 -3.25 C 0.578125 -3.8125 0.671875 -4.300781 0.859375 -4.71875 C 1.046875 -5.132812 1.300781 -5.484375 1.625 -5.765625 C 1.945312 -6.046875 2.304688 -6.253906 2.703125 -6.390625 C 3.109375 -6.535156 3.523438 -6.609375 3.953125 -6.609375 C 4.492188 -6.609375 5.007812 -6.492188 5.5 -6.265625 C 6 -6.035156 6.410156 -5.691406 6.734375 -5.234375 C 7.066406 -4.785156 7.253906 -4.21875 7.296875 -3.53125 Z M 6.046875 -3.953125 C 5.972656 -4.335938 5.832031 -4.648438 5.625 -4.890625 C 5.414062 -5.128906 5.160156 -5.300781 4.859375 -5.40625 C 4.566406 -5.519531 4.265625 -5.578125 3.953125 -5.578125 C 3.640625 -5.578125 3.332031 -5.519531 3.03125 -5.40625 C 2.738281 -5.300781 2.476562 -5.128906 2.25 -4.890625 C 2.03125 -4.648438 1.882812 -4.335938 1.8125 -3.953125 Z M 6.046875 -3.953125 "/></g></g></g><g fill="#4588ff" fill-opacity="1"><g transform="translate(159.548871, 281.159221)"><g><path d="M 5.15625 -6.515625 L 6.40625 -6.515625 L 3.765625 0.046875 L 2.828125 0.046875 L 0.1875 -6.515625 L 1.4375 -6.515625 L 2.5 -3.859375 L 3.296875 -1.578125 L 4.09375 -3.84375 Z M 5.15625 -6.515625 "/></g></g></g><g fill="#4588ff" fill-opacity="1"><g transform="translate(166.149742, 281.159221)"><g><path d="M 7.296875 -3.53125 C 7.296875 -3.5 7.296875 -3.46875 7.296875 -3.4375 C 7.296875 -3.40625 7.296875 -3.367188 7.296875 -3.328125 C 7.296875 -3.203125 7.285156 -3.082031 7.265625 -2.96875 L 1.75 -2.96875 C 1.75 -2.539062 1.863281 -2.175781 2.09375 -1.875 C 2.320312 -1.570312 2.609375 -1.335938 2.953125 -1.171875 C 3.296875 -1.003906 3.628906 -0.921875 3.953125 -0.921875 C 4.347656 -0.921875 4.71875 -1.007812 5.0625 -1.1875 C 5.414062 -1.363281 5.691406 -1.640625 5.890625 -2.015625 L 7.09375 -2.015625 C 6.9375 -1.535156 6.691406 -1.132812 6.359375 -0.8125 C 6.035156 -0.5 5.660156 -0.265625 5.234375 -0.109375 C 4.816406 0.046875 4.382812 0.125 3.9375 0.125 C 3.519531 0.125 3.109375 0.0546875 2.703125 -0.078125 C 2.304688 -0.222656 1.945312 -0.4375 1.625 -0.71875 C 1.300781 -1 1.046875 -1.347656 0.859375 -1.765625 C 0.671875 -2.191406 0.578125 -2.6875 0.578125 -3.25 C 0.578125 -3.8125 0.671875 -4.300781 0.859375 -4.71875 C 1.046875 -5.132812 1.300781 -5.484375 1.625 -5.765625 C 1.945312 -6.046875 2.304688 -6.253906 2.703125 -6.390625 C 3.109375 -6.535156 3.523438 -6.609375 3.953125 -6.609375 C 4.492188 -6.609375 5.007812 -6.492188 5.5 -6.265625 C 6 -6.035156 6.410156 -5.691406 6.734375 -5.234375 C 7.066406 -4.785156 7.253906 -4.21875 7.296875 -3.53125 Z M 6.046875 -3.953125 C 5.972656 -4.335938 5.832031 -4.648438 5.625 -4.890625 C 5.414062 -5.128906 5.160156 -5.300781 4.859375 -5.40625 C 4.566406 -5.519531 4.265625 -5.578125 3.953125 -5.578125 C 3.640625 -5.578125 3.332031 -5.519531 3.03125 -5.40625 C 2.738281 -5.300781 2.476562 -5.128906 2.25 -4.890625 C 2.03125 -4.648438 1.882812 -4.335938 1.8125 -3.953125 Z M 6.046875 -3.953125 "/></g></g></g><g fill="#4588ff" fill-opacity="1"><g transform="translate(174.085224, 281.159221)"><g><path d="M 0.90625 0 L 0.90625 -8.421875 L 2.078125 -8.421875 L 2.078125 0 Z M 0.90625 0 "/></g></g></g><g fill="#4588ff" fill-opacity="1"><g transform="translate(177.067039, 281.159221)"><g><path d="M 7.640625 -3.25 C 7.640625 -2.6875 7.539062 -2.191406 7.34375 -1.765625 C 7.144531 -1.347656 6.878906 -1 6.546875 -0.71875 C 6.210938 -0.4375 5.832031 -0.222656 5.40625 -0.078125 C 4.988281 0.0546875 4.554688 0.125 4.109375 0.125 C 3.679688 0.125 3.257812 0.0546875 2.84375 -0.078125 C 2.425781 -0.222656 2.050781 -0.4375 1.71875 -0.71875 C 1.382812 -1 1.117188 -1.347656 0.921875 -1.765625 C 0.722656 -2.191406 0.625 -2.6875 0.625 -3.25 C 0.625 -3.8125 0.722656 -4.300781 0.921875 -4.71875 C 1.117188 -5.144531 1.382812 -5.5 1.71875 -5.78125 C 2.050781 -6.0625 2.425781 -6.269531 2.84375 -6.40625 C 3.269531 -6.550781 3.707031 -6.625 4.15625 -6.625 C 4.59375 -6.625 5.015625 -6.550781 5.421875 -6.40625 C 5.835938 -6.269531 6.210938 -6.0625 6.546875 -5.78125 C 6.878906 -5.5 7.144531 -5.144531 7.34375 -4.71875 C 7.539062 -4.300781 7.640625 -3.8125 7.640625 -3.25 Z M 1.8125 -3.25 C 1.8125 -2.738281 1.921875 -2.3125 2.140625 -1.96875 C 2.367188 -1.625 2.660156 -1.363281 3.015625 -1.1875 C 3.378906 -1.019531 3.753906 -0.9375 4.140625 -0.9375 C 4.535156 -0.9375 4.90625 -1.019531 5.25 -1.1875 C 5.601562 -1.363281 5.894531 -1.625 6.125 -1.96875 C 6.351562 -2.3125 6.46875 -2.738281 6.46875 -3.25 C 6.46875 -3.757812 6.351562 -4.1875 6.125 -4.53125 C 5.90625 -4.875 5.617188 -5.132812 5.265625 -5.3125 C 4.910156 -5.488281 4.539062 -5.578125 4.15625 -5.578125 C 3.757812 -5.578125 3.378906 -5.488281 3.015625 -5.3125 C 2.660156 -5.132812 2.367188 -4.875 2.140625 -4.53125 C 1.921875 -4.195312 1.8125 -3.769531 1.8125 -3.25 Z M 1.8125 -3.25 "/></g></g></g><g fill="#4588ff" fill-opacity="1"><g transform="translate(185.411315, 281.159221)"><g><path d="M 0.890625 1.90625 L 0.890625 -6.515625 L 2.0625 -6.515625 L 2.0625 -5.640625 C 2.300781 -5.992188 2.625 -6.242188 3.03125 -6.390625 C 3.445312 -6.546875 3.859375 -6.625 4.265625 -6.625 C 5.023438 -6.625 5.648438 -6.460938 6.140625 -6.140625 C 6.628906 -5.828125 6.992188 -5.410156 7.234375 -4.890625 C 7.484375 -4.378906 7.609375 -3.828125 7.609375 -3.234375 C 7.609375 -2.648438 7.484375 -2.101562 7.234375 -1.59375 C 6.984375 -1.082031 6.609375 -0.671875 6.109375 -0.359375 C 5.609375 -0.046875 4.992188 0.109375 4.265625 0.109375 C 3.859375 0.109375 3.460938 0.046875 3.078125 -0.078125 C 2.691406 -0.210938 2.351562 -0.472656 2.0625 -0.859375 L 2.0625 1.90625 Z M 2.0625 -3.265625 C 2.0625 -2.742188 2.164062 -2.3125 2.375 -1.96875 C 2.59375 -1.625 2.867188 -1.363281 3.203125 -1.1875 C 3.546875 -1.019531 3.898438 -0.9375 4.265625 -0.9375 C 4.742188 -0.9375 5.144531 -1.046875 5.46875 -1.265625 C 5.789062 -1.492188 6.03125 -1.785156 6.1875 -2.140625 C 6.351562 -2.503906 6.4375 -2.878906 6.4375 -3.265625 C 6.4375 -3.648438 6.351562 -4.019531 6.1875 -4.375 C 6.03125 -4.726562 5.789062 -5.015625 5.46875 -5.234375 C 5.15625 -5.460938 4.753906 -5.578125 4.265625 -5.578125 C 3.910156 -5.578125 3.5625 -5.488281 3.21875 -5.3125 C 2.882812 -5.144531 2.609375 -4.890625 2.390625 -4.546875 C 2.171875 -4.210938 2.0625 -3.785156 2.0625 -3.265625 Z M 2.0625 -3.265625 "/></g></g></g><g fill="#4588ff" fill-opacity="1"><g transform="translate(193.695475, 281.159221)"><g><path d="M 2.234375 -5.703125 C 2.460938 -6.035156 2.726562 -6.269531 3.03125 -6.40625 C 3.34375 -6.550781 3.6875 -6.625 4.0625 -6.625 C 4.519531 -6.625 4.941406 -6.546875 5.328125 -6.390625 C 5.722656 -6.242188 6.039062 -5.941406 6.28125 -5.484375 C 6.6875 -6.222656 7.378906 -6.601562 8.359375 -6.625 C 8.960938 -6.625 9.453125 -6.492188 9.828125 -6.234375 C 10.203125 -5.972656 10.476562 -5.625 10.65625 -5.1875 C 10.84375 -4.75 10.9375 -4.253906 10.9375 -3.703125 L 10.9375 0 L 9.75 0 L 9.75 -3.6875 C 9.75 -4 9.710938 -4.296875 9.640625 -4.578125 C 9.578125 -4.859375 9.445312 -5.082031 9.25 -5.25 C 9.0625 -5.425781 8.773438 -5.515625 8.390625 -5.515625 C 7.816406 -5.515625 7.382812 -5.335938 7.09375 -4.984375 C 6.8125 -4.640625 6.671875 -4.203125 6.671875 -3.671875 L 6.671875 0 L 5.484375 0 L 5.484375 -3.65625 C 5.484375 -3.957031 5.4375 -4.25 5.34375 -4.53125 C 5.257812 -4.820312 5.113281 -5.054688 4.90625 -5.234375 C 4.695312 -5.421875 4.410156 -5.515625 4.046875 -5.515625 C 3.535156 -5.515625 3.101562 -5.34375 2.75 -5 C 2.40625 -4.664062 2.234375 -4.175781 2.234375 -3.53125 L 2.234375 0 L 1.0625 0 L 1.0625 -6.625 L 2.234375 -6.625 Z M 2.234375 -5.703125 "/></g></g></g><g fill="#4588ff" fill-opacity="1"><g transform="translate(205.538576, 281.159221)"><g><path d="M 7.296875 -3.53125 C 7.296875 -3.5 7.296875 -3.46875 7.296875 -3.4375 C 7.296875 -3.40625 7.296875 -3.367188 7.296875 -3.328125 C 7.296875 -3.203125 7.285156 -3.082031 7.265625 -2.96875 L 1.75 -2.96875 C 1.75 -2.539062 1.863281 -2.175781 2.09375 -1.875 C 2.320312 -1.570312 2.609375 -1.335938 2.953125 -1.171875 C 3.296875 -1.003906 3.628906 -0.921875 3.953125 -0.921875 C 4.347656 -0.921875 4.71875 -1.007812 5.0625 -1.1875 C 5.414062 -1.363281 5.691406 -1.640625 5.890625 -2.015625 L 7.09375 -2.015625 C 6.9375 -1.535156 6.691406 -1.132812 6.359375 -0.8125 C 6.035156 -0.5 5.660156 -0.265625 5.234375 -0.109375 C 4.816406 0.046875 4.382812 0.125 3.9375 0.125 C 3.519531 0.125 3.109375 0.0546875 2.703125 -0.078125 C 2.304688 -0.222656 1.945312 -0.4375 1.625 -0.71875 C 1.300781 -1 1.046875 -1.347656 0.859375 -1.765625 C 0.671875 -2.191406 0.578125 -2.6875 0.578125 -3.25 C 0.578125 -3.8125 0.671875 -4.300781 0.859375 -4.71875 C 1.046875 -5.132812 1.300781 -5.484375 1.625 -5.765625 C 1.945312 -6.046875 2.304688 -6.253906 2.703125 -6.390625 C 3.109375 -6.535156 3.523438 -6.609375 3.953125 -6.609375 C 4.492188 -6.609375 5.007812 -6.492188 5.5 -6.265625 C 6 -6.035156 6.410156 -5.691406 6.734375 -5.234375 C 7.066406 -4.785156 7.253906 -4.21875 7.296875 -3.53125 Z M 6.046875 -3.953125 C 5.972656 -4.335938 5.832031 -4.648438 5.625 -4.890625 C 5.414062 -5.128906 5.160156 -5.300781 4.859375 -5.40625 C 4.566406 -5.519531 4.265625 -5.578125 3.953125 -5.578125 C 3.640625 -5.578125 3.332031 -5.519531 3.03125 -5.40625 C 2.738281 -5.300781 2.476562 -5.128906 2.25 -4.890625 C 2.03125 -4.648438 1.882812 -4.335938 1.8125 -3.953125 Z M 6.046875 -3.953125 "/></g></g></g><g fill="#4588ff" fill-opacity="1"><g transform="translate(213.474057, 281.159221)"><g><path d="M 2.078125 -5.703125 C 2.316406 -6.054688 2.609375 -6.296875 2.953125 -6.421875 C 3.296875 -6.546875 3.671875 -6.609375 4.078125 -6.609375 C 4.742188 -6.609375 5.28125 -6.476562 5.6875 -6.21875 C 6.101562 -5.957031 6.410156 -5.59375 6.609375 -5.125 C 6.804688 -4.664062 6.90625 -4.125 6.90625 -3.5 L 6.90625 0 L 5.734375 0 L 5.734375 -3.484375 C 5.734375 -3.898438 5.6875 -4.265625 5.59375 -4.578125 C 5.507812 -4.890625 5.335938 -5.128906 5.078125 -5.296875 C 4.828125 -5.472656 4.46875 -5.5625 4 -5.5625 C 3.582031 -5.5625 3.234375 -5.46875 2.953125 -5.28125 C 2.671875 -5.101562 2.453125 -4.863281 2.296875 -4.5625 C 2.148438 -4.257812 2.078125 -3.914062 2.078125 -3.53125 L 2.078125 0 L 0.90625 0 L 0.90625 -6.515625 L 2.078125 -6.515625 Z M 2.078125 -5.703125 "/></g></g></g><g fill="#4588ff" fill-opacity="1"><g transform="translate(221.265251, 281.159221)"><g><path d="M 2.4375 -6.515625 L 3.875 -6.515625 L 3.875 -5.578125 L 2.4375 -5.578125 L 2.4375 -1.90625 C 2.4375 -1.519531 2.523438 -1.265625 2.703125 -1.140625 C 2.878906 -1.015625 3.117188 -0.953125 3.421875 -0.953125 C 3.492188 -0.953125 3.570312 -0.953125 3.65625 -0.953125 C 3.738281 -0.960938 3.820312 -0.96875 3.90625 -0.96875 L 3.90625 0.015625 C 3.8125 0.0234375 3.71875 0.03125 3.625 0.03125 C 3.539062 0.03125 3.457031 0.03125 3.375 0.03125 C 2.945312 0.03125 2.570312 -0.0234375 2.25 -0.140625 C 1.9375 -0.253906 1.691406 -0.453125 1.515625 -0.734375 C 1.347656 -1.015625 1.265625 -1.40625 1.265625 -1.90625 L 1.265625 -5.578125 L 0.28125 -5.578125 L 0.28125 -6.515625 L 1.265625 -6.515625 L 1.265625 -7.71875 L 2.4375 -7.953125 Z M 2.4375 -6.515625 "/></g></g></g><g fill="#4588ff" fill-opacity="1"><g transform="translate(225.401318, 281.159221)"><g/></g></g><g fill="#4588ff" fill-opacity="1"><g transform="translate(228.39516, 281.159221)"><g><path d="M 2.125 -4.734375 L 2.90625 -1.9375 L 4.203125 -6.515625 L 5.25 -6.515625 L 6.5625 -1.9375 L 7.328125 -4.734375 L 7.875 -6.515625 L 9.125 -6.515625 L 6.984375 0.046875 L 6.09375 0.046875 L 5.296875 -2.5 L 4.734375 -4.46875 L 4.15625 -2.5 L 3.359375 0.046875 L 2.46875 0.046875 L 0.34375 -6.515625 L 1.578125 -6.515625 Z M 2.125 -4.734375 "/></g></g></g><g fill="#4588ff" fill-opacity="1"><g transform="translate(237.821544, 281.159221)"><g><path d="M 0.828125 -8.1875 C 0.828125 -8.40625 0.90625 -8.570312 1.0625 -8.6875 C 1.21875 -8.800781 1.390625 -8.859375 1.578125 -8.859375 C 1.765625 -8.859375 1.929688 -8.800781 2.078125 -8.6875 C 2.222656 -8.582031 2.296875 -8.414062 2.296875 -8.1875 C 2.296875 -7.957031 2.21875 -7.785156 2.0625 -7.671875 C 1.914062 -7.554688 1.75 -7.5 1.5625 -7.5 C 1.382812 -7.5 1.21875 -7.554688 1.0625 -7.671875 C 0.90625 -7.785156 0.828125 -7.957031 0.828125 -8.1875 Z M 0.96875 -6.578125 L 0.96875 0 L 2.15625 0 L 2.15625 -6.578125 Z M 0.96875 -6.578125 "/></g></g></g><g fill="#4588ff" fill-opacity="1"><g transform="translate(241.05585, 281.159221)"><g><path d="M 2.4375 -6.515625 L 3.875 -6.515625 L 3.875 -5.578125 L 2.4375 -5.578125 L 2.4375 -1.90625 C 2.4375 -1.519531 2.523438 -1.265625 2.703125 -1.140625 C 2.878906 -1.015625 3.117188 -0.953125 3.421875 -0.953125 C 3.492188 -0.953125 3.570312 -0.953125 3.65625 -0.953125 C 3.738281 -0.960938 3.820312 -0.96875 3.90625 -0.96875 L 3.90625 0.015625 C 3.8125 0.0234375 3.71875 0.03125 3.625 0.03125 C 3.539062 0.03125 3.457031 0.03125 3.375 0.03125 C 2.945312 0.03125 2.570312 -0.0234375 2.25 -0.140625 C 1.9375 -0.253906 1.691406 -0.453125 1.515625 -0.734375 C 1.347656 -1.015625 1.265625 -1.40625 1.265625 -1.90625 L 1.265625 -5.578125 L 0.28125 -5.578125 L 0.28125 -6.515625 L 1.265625 -6.515625 L 1.265625 -7.71875 L 2.4375 -7.953125 Z M 2.4375 -6.515625 "/></g></g></g><g fill="#4588ff" fill-opacity="1"><g transform="translate(245.191916, 281.159221)"><g><path d="M 2.03125 -5.703125 C 2.28125 -6.054688 2.570312 -6.296875 2.90625 -6.421875 C 3.25 -6.546875 3.625 -6.609375 4.03125 -6.609375 C 4.695312 -6.609375 5.238281 -6.476562 5.65625 -6.21875 C 6.070312 -5.957031 6.378906 -5.59375 6.578125 -5.125 C 6.773438 -4.664062 6.875 -4.125 6.875 -3.5 L 6.875 0 L 5.6875 0 L 5.6875 -3.484375 C 5.6875 -3.898438 5.640625 -4.265625 5.546875 -4.578125 C 5.460938 -4.890625 5.289062 -5.128906 5.03125 -5.296875 C 4.78125 -5.472656 4.421875 -5.5625 3.953125 -5.5625 C 3.535156 -5.5625 3.1875 -5.46875 2.90625 -5.28125 C 2.625 -5.101562 2.40625 -4.863281 2.25 -4.5625 C 2.101562 -4.257812 2.03125 -3.914062 2.03125 -3.53125 L 2.03125 0 L 0.859375 0 L 0.859375 -8.421875 L 2.03125 -8.421875 Z M 2.03125 -5.703125 "/></g></g></g><g fill="#4588ff" fill-opacity="1"><g transform="translate(252.98311, 281.159221)"><g/></g></g><g fill="#4588ff" fill-opacity="1"><g transform="translate(255.976953, 281.159221)"><g><path d="M 0.921875 -8.21875 C 0.921875 -8.4375 1 -8.601562 1.15625 -8.71875 C 1.3125 -8.832031 1.476562 -8.890625 1.65625 -8.890625 C 1.84375 -8.890625 2.007812 -8.832031 2.15625 -8.71875 C 2.300781 -8.613281 2.375 -8.445312 2.375 -8.21875 C 2.375 -7.988281 2.296875 -7.816406 2.140625 -7.703125 C 1.992188 -7.585938 1.828125 -7.53125 1.640625 -7.53125 C 1.472656 -7.53125 1.3125 -7.585938 1.15625 -7.703125 C 1 -7.816406 0.921875 -7.988281 0.921875 -8.21875 Z M 1.0625 -0.0625 C 1.0625 0.34375 0.941406 0.617188 0.703125 0.765625 C 0.472656 0.910156 0.195312 0.984375 -0.125 0.984375 C -0.164062 0.984375 -0.210938 0.984375 -0.265625 0.984375 C -0.316406 0.984375 -0.363281 0.976562 -0.40625 0.96875 L -0.40625 2.015625 C -0.320312 2.015625 -0.238281 2.015625 -0.15625 2.015625 C -0.0703125 2.023438 0.0078125 2.03125 0.09375 2.03125 C 0.738281 2.03125 1.253906 1.863281 1.640625 1.53125 C 2.035156 1.195312 2.234375 0.644531 2.234375 -0.125 L 2.234375 -6.578125 L 1.0625 -6.578125 Z M 1.0625 -0.0625 "/></g></g></g><g fill="#4588ff" fill-opacity="1"><g transform="translate(259.139116, 281.159221)"><g><path d="M 7.65625 0 L 6.484375 0 L 6.484375 -0.875 C 6.328125 -0.644531 6.117188 -0.457031 5.859375 -0.3125 C 5.597656 -0.164062 5.316406 -0.0625 5.015625 0 C 4.722656 0.0625 4.4375 0.0976562 4.15625 0.109375 C 3.40625 0.109375 2.769531 -0.046875 2.25 -0.359375 C 1.726562 -0.679688 1.332031 -1.097656 1.0625 -1.609375 C 0.789062 -2.128906 0.65625 -2.6875 0.65625 -3.28125 C 0.65625 -3.863281 0.789062 -4.40625 1.0625 -4.90625 C 1.34375 -5.414062 1.742188 -5.828125 2.265625 -6.140625 C 2.785156 -6.460938 3.410156 -6.625 4.140625 -6.625 C 4.410156 -6.625 4.691406 -6.59375 4.984375 -6.53125 C 5.273438 -6.476562 5.550781 -6.382812 5.8125 -6.25 C 6.070312 -6.113281 6.300781 -5.910156 6.5 -5.640625 L 6.484375 -6.515625 L 7.65625 -6.515625 Z M 6.484375 -3.265625 C 6.484375 -3.785156 6.363281 -4.210938 6.125 -4.546875 C 5.894531 -4.890625 5.597656 -5.144531 5.234375 -5.3125 C 4.867188 -5.488281 4.503906 -5.578125 4.140625 -5.578125 C 3.660156 -5.578125 3.25 -5.472656 2.90625 -5.265625 C 2.5625 -5.066406 2.296875 -4.796875 2.109375 -4.453125 C 1.929688 -4.109375 1.84375 -3.71875 1.84375 -3.28125 C 1.84375 -2.875 1.929688 -2.488281 2.109375 -2.125 C 2.296875 -1.769531 2.5625 -1.484375 2.90625 -1.265625 C 3.25 -1.046875 3.660156 -0.9375 4.140625 -0.9375 C 4.503906 -0.9375 4.863281 -1.019531 5.21875 -1.1875 C 5.582031 -1.351562 5.882812 -1.609375 6.125 -1.953125 C 6.363281 -2.304688 6.484375 -2.742188 6.484375 -3.265625 Z M 6.484375 -3.265625 "/></g></g></g><g fill="#4588ff" fill-opacity="1"><g transform="translate(267.579591, 281.159221)"><g><path d="M 5.15625 -6.515625 L 6.40625 -6.515625 L 3.765625 0.046875 L 2.828125 0.046875 L 0.1875 -6.515625 L 1.4375 -6.515625 L 2.5 -3.859375 L 3.296875 -1.578125 L 4.09375 -3.84375 Z M 5.15625 -6.515625 "/></g></g></g><g fill="#4588ff" fill-opacity="1"><g transform="translate(274.180451, 281.159221)"><g><path d="M 7.65625 0 L 6.484375 0 L 6.484375 -0.875 C 6.328125 -0.644531 6.117188 -0.457031 5.859375 -0.3125 C 5.597656 -0.164062 5.316406 -0.0625 5.015625 0 C 4.722656 0.0625 4.4375 0.0976562 4.15625 0.109375 C 3.40625 0.109375 2.769531 -0.046875 2.25 -0.359375 C 1.726562 -0.679688 1.332031 -1.097656 1.0625 -1.609375 C 0.789062 -2.128906 0.65625 -2.6875 0.65625 -3.28125 C 0.65625 -3.863281 0.789062 -4.40625 1.0625 -4.90625 C 1.34375 -5.414062 1.742188 -5.828125 2.265625 -6.140625 C 2.785156 -6.460938 3.410156 -6.625 4.140625 -6.625 C 4.410156 -6.625 4.691406 -6.59375 4.984375 -6.53125 C 5.273438 -6.476562 5.550781 -6.382812 5.8125 -6.25 C 6.070312 -6.113281 6.300781 -5.910156 6.5 -5.640625 L 6.484375 -6.515625 L 7.65625 -6.515625 Z M 6.484375 -3.265625 C 6.484375 -3.785156 6.363281 -4.210938 6.125 -4.546875 C 5.894531 -4.890625 5.597656 -5.144531 5.234375 -5.3125 C 4.867188 -5.488281 4.503906 -5.578125 4.140625 -5.578125 C 3.660156 -5.578125 3.25 -5.472656 2.90625 -5.265625 C 2.5625 -5.066406 2.296875 -4.796875 2.109375 -4.453125 C 1.929688 -4.109375 1.84375 -3.71875 1.84375 -3.28125 C 1.84375 -2.875 1.929688 -2.488281 2.109375 -2.125 C 2.296875 -1.769531 2.5625 -1.484375 2.90625 -1.265625 C 3.25 -1.046875 3.660156 -0.9375 4.140625 -0.9375 C 4.503906 -0.9375 4.863281 -1.019531 5.21875 -1.1875 C 5.582031 -1.351562 5.882812 -1.609375 6.125 -1.953125 C 6.363281 -2.304688 6.484375 -2.742188 6.484375 -3.265625 Z M 6.484375 -3.265625 "/></g></g></g><g fill="#4588ff" fill-opacity="1"><g transform="translate(282.620926, 281.159221)"><g><path d="M 1.71875 -4.625 C 1.71875 -4.425781 1.765625 -4.269531 1.859375 -4.15625 C 1.960938 -4.050781 2.09375 -3.972656 2.25 -3.921875 C 2.414062 -3.867188 2.582031 -3.835938 2.75 -3.828125 C 2.925781 -3.816406 3.085938 -3.804688 3.234375 -3.796875 C 3.535156 -3.773438 3.84375 -3.726562 4.15625 -3.65625 C 4.46875 -3.59375 4.75 -3.488281 5 -3.34375 C 5.257812 -3.207031 5.46875 -3.015625 5.625 -2.765625 C 5.78125 -2.523438 5.859375 -2.222656 5.859375 -1.859375 C 5.859375 -1.472656 5.773438 -1.15625 5.609375 -0.90625 C 5.441406 -0.65625 5.222656 -0.453125 4.953125 -0.296875 C 4.691406 -0.148438 4.398438 -0.046875 4.078125 0.015625 C 3.753906 0.078125 3.441406 0.109375 3.140625 0.109375 C 2.691406 0.109375 2.269531 0.0390625 1.875 -0.09375 C 1.476562 -0.226562 1.148438 -0.453125 0.890625 -0.765625 C 0.628906 -1.078125 0.484375 -1.488281 0.453125 -2 L 1.640625 -2 C 1.660156 -1.632812 1.816406 -1.363281 2.109375 -1.1875 C 2.410156 -1.007812 2.765625 -0.921875 3.171875 -0.921875 C 3.367188 -0.921875 3.582031 -0.945312 3.8125 -1 C 4.039062 -1.050781 4.242188 -1.144531 4.421875 -1.28125 C 4.597656 -1.414062 4.6875 -1.613281 4.6875 -1.875 C 4.6875 -2.0625 4.628906 -2.207031 4.515625 -2.3125 C 4.410156 -2.425781 4.269531 -2.507812 4.09375 -2.5625 C 3.925781 -2.625 3.753906 -2.664062 3.578125 -2.6875 C 3.410156 -2.71875 3.253906 -2.738281 3.109375 -2.75 C 2.816406 -2.757812 2.519531 -2.796875 2.21875 -2.859375 C 1.914062 -2.921875 1.640625 -3.019531 1.390625 -3.15625 C 1.140625 -3.289062 0.9375 -3.472656 0.78125 -3.703125 C 0.625 -3.941406 0.546875 -4.242188 0.546875 -4.609375 C 0.546875 -5.109375 0.675781 -5.503906 0.9375 -5.796875 C 1.195312 -6.097656 1.523438 -6.3125 1.921875 -6.4375 C 2.328125 -6.570312 2.738281 -6.640625 3.15625 -6.640625 C 3.582031 -6.640625 3.976562 -6.570312 4.34375 -6.4375 C 4.71875 -6.3125 5.023438 -6.109375 5.265625 -5.828125 C 5.503906 -5.554688 5.640625 -5.191406 5.671875 -4.734375 L 4.5 -4.734375 C 4.46875 -5.015625 4.316406 -5.222656 4.046875 -5.359375 C 3.773438 -5.503906 3.460938 -5.578125 3.109375 -5.578125 C 2.753906 -5.578125 2.429688 -5.503906 2.140625 -5.359375 C 1.859375 -5.210938 1.71875 -4.96875 1.71875 -4.625 Z M 1.71875 -4.625 "/></g></g></g><g fill="#4588ff" fill-opacity="1"><g transform="translate(288.885147, 281.159221)"><g><path d="M 7.28125 -2.484375 C 7.175781 -1.898438 6.953125 -1.414062 6.609375 -1.03125 C 6.273438 -0.65625 5.875 -0.375 5.40625 -0.1875 C 4.945312 0 4.46875 0.09375 3.96875 0.09375 C 3.550781 0.09375 3.140625 0.0234375 2.734375 -0.109375 C 2.335938 -0.253906 1.976562 -0.46875 1.65625 -0.75 C 1.332031 -1.03125 1.078125 -1.378906 0.890625 -1.796875 C 0.703125 -2.210938 0.609375 -2.703125 0.609375 -3.265625 C 0.609375 -3.828125 0.703125 -4.316406 0.890625 -4.734375 C 1.078125 -5.148438 1.332031 -5.5 1.65625 -5.78125 C 1.988281 -6.0625 2.351562 -6.269531 2.75 -6.40625 C 3.15625 -6.550781 3.570312 -6.625 4 -6.625 C 4.488281 -6.625 4.960938 -6.523438 5.421875 -6.328125 C 5.878906 -6.140625 6.273438 -5.851562 6.609375 -5.46875 C 6.953125 -5.082031 7.175781 -4.601562 7.28125 -4.03125 L 6.0625 -4.03125 C 5.914062 -4.550781 5.648438 -4.9375 5.265625 -5.1875 C 4.878906 -5.445312 4.457031 -5.578125 4 -5.578125 C 3.644531 -5.578125 3.296875 -5.488281 2.953125 -5.3125 C 2.609375 -5.144531 2.328125 -4.890625 2.109375 -4.546875 C 1.898438 -4.210938 1.796875 -3.785156 1.796875 -3.265625 C 1.796875 -2.742188 1.898438 -2.304688 2.109375 -1.953125 C 2.328125 -1.609375 2.609375 -1.351562 2.953125 -1.1875 C 3.296875 -1.019531 3.648438 -0.9375 4.015625 -0.9375 C 4.460938 -0.9375 4.878906 -1.0625 5.265625 -1.3125 C 5.648438 -1.570312 5.914062 -1.960938 6.0625 -2.484375 Z M 7.28125 -2.484375 "/></g></g></g><g fill="#4588ff" fill-opacity="1"><g transform="translate(296.760512, 281.159221)"><g><path d="M 2.0625 -5.703125 C 2.300781 -6.035156 2.578125 -6.273438 2.890625 -6.421875 C 3.210938 -6.566406 3.550781 -6.640625 3.90625 -6.640625 C 4.039062 -6.640625 4.171875 -6.628906 4.296875 -6.609375 C 4.421875 -6.597656 4.550781 -6.578125 4.6875 -6.546875 L 4.6875 -5.515625 C 4.488281 -5.566406 4.285156 -5.59375 4.078125 -5.59375 C 3.710938 -5.59375 3.378906 -5.5 3.078125 -5.3125 C 2.773438 -5.132812 2.53125 -4.890625 2.34375 -4.578125 C 2.15625 -4.273438 2.0625 -3.925781 2.0625 -3.53125 L 2.0625 0 L 0.90625 0 L 0.90625 -6.5 L 2.0625 -6.5 Z M 2.0625 -5.703125 "/></g></g></g><g fill="#4588ff" fill-opacity="1"><g transform="translate(301.810378, 281.159221)"><g><path d="M 0.828125 -8.1875 C 0.828125 -8.40625 0.90625 -8.570312 1.0625 -8.6875 C 1.21875 -8.800781 1.390625 -8.859375 1.578125 -8.859375 C 1.765625 -8.859375 1.929688 -8.800781 2.078125 -8.6875 C 2.222656 -8.582031 2.296875 -8.414062 2.296875 -8.1875 C 2.296875 -7.957031 2.21875 -7.785156 2.0625 -7.671875 C 1.914062 -7.554688 1.75 -7.5 1.5625 -7.5 C 1.382812 -7.5 1.21875 -7.554688 1.0625 -7.671875 C 0.90625 -7.785156 0.828125 -7.957031 0.828125 -8.1875 Z M 0.96875 -6.578125 L 0.96875 0 L 2.15625 0 L 2.15625 -6.578125 Z M 0.96875 -6.578125 "/></g></g></g><g fill="#4588ff" fill-opacity="1"><g transform="translate(305.044684, 281.159221)"><g><path d="M 0.890625 1.90625 L 0.890625 -6.515625 L 2.0625 -6.515625 L 2.0625 -5.640625 C 2.300781 -5.992188 2.625 -6.242188 3.03125 -6.390625 C 3.445312 -6.546875 3.859375 -6.625 4.265625 -6.625 C 5.023438 -6.625 5.648438 -6.460938 6.140625 -6.140625 C 6.628906 -5.828125 6.992188 -5.410156 7.234375 -4.890625 C 7.484375 -4.378906 7.609375 -3.828125 7.609375 -3.234375 C 7.609375 -2.648438 7.484375 -2.101562 7.234375 -1.59375 C 6.984375 -1.082031 6.609375 -0.671875 6.109375 -0.359375 C 5.609375 -0.046875 4.992188 0.109375 4.265625 0.109375 C 3.859375 0.109375 3.460938 0.046875 3.078125 -0.078125 C 2.691406 -0.210938 2.351562 -0.472656 2.0625 -0.859375 L 2.0625 1.90625 Z M 2.0625 -3.265625 C 2.0625 -2.742188 2.164062 -2.3125 2.375 -1.96875 C 2.59375 -1.625 2.867188 -1.363281 3.203125 -1.1875 C 3.546875 -1.019531 3.898438 -0.9375 4.265625 -0.9375 C 4.742188 -0.9375 5.144531 -1.046875 5.46875 -1.265625 C 5.789062 -1.492188 6.03125 -1.785156 6.1875 -2.140625 C 6.351562 -2.503906 6.4375 -2.878906 6.4375 -3.265625 C 6.4375 -3.648438 6.351562 -4.019531 6.1875 -4.375 C 6.03125 -4.726562 5.789062 -5.015625 5.46875 -5.234375 C 5.15625 -5.460938 4.753906 -5.578125 4.265625 -5.578125 C 3.910156 -5.578125 3.5625 -5.488281 3.21875 -5.3125 C 2.882812 -5.144531 2.609375 -4.890625 2.390625 -4.546875 C 2.171875 -4.210938 2.0625 -3.785156 2.0625 -3.265625 Z M 2.0625 -3.265625 "/></g></g></g><g fill="#4588ff" fill-opacity="1"><g transform="translate(313.328855, 281.159221)"><g><path d="M 2.4375 -6.515625 L 3.875 -6.515625 L 3.875 -5.578125 L 2.4375 -5.578125 L 2.4375 -1.90625 C 2.4375 -1.519531 2.523438 -1.265625 2.703125 -1.140625 C 2.878906 -1.015625 3.117188 -0.953125 3.421875 -0.953125 C 3.492188 -0.953125 3.570312 -0.953125 3.65625 -0.953125 C 3.738281 -0.960938 3.820312 -0.96875 3.90625 -0.96875 L 3.90625 0.015625 C 3.8125 0.0234375 3.71875 0.03125 3.625 0.03125 C 3.539062 0.03125 3.457031 0.03125 3.375 0.03125 C 2.945312 0.03125 2.570312 -0.0234375 2.25 -0.140625 C 1.9375 -0.253906 1.691406 -0.453125 1.515625 -0.734375 C 1.347656 -1.015625 1.265625 -1.40625 1.265625 -1.90625 L 1.265625 -5.578125 L 0.28125 -5.578125 L 0.28125 -6.515625 L 1.265625 -6.515625 L 1.265625 -7.71875 L 2.4375 -7.953125 Z M 2.4375 -6.515625 "/></g></g></g><g clip-path="url(#42ba07830e)"><path fill="#4e4e4e" d="M 262.5 107.542969 C 262.5 107.285156 262.453125 107.042969 262.355469 106.804688 C 262.257812 106.566406 262.121094 106.359375 261.9375 106.179688 C 261.757812 105.996094 261.550781 105.859375 261.3125 105.761719 C 261.078125 105.664062 260.832031 105.613281 260.574219 105.617188 L 221.597656 105.617188 L 221.597656 67.402344 L 221.589844 67.402344 C 221.59375 67.148438 221.546875 66.902344 221.449219 66.664062 C 221.351562 66.429688 221.214844 66.21875 221.03125 66.039062 C 220.851562 65.855469 220.644531 65.71875 220.40625 65.621094 C 220.167969 65.523438 219.921875 65.476562 219.667969 65.476562 L 177.523438 65.476562 C 176.992188 65.476562 176.535156 65.664062 176.160156 66.039062 L 154.761719 87.375 C 154.578125 87.503906 154.421875 87.660156 154.292969 87.84375 L 113.386719 128.625 C 113.113281 128.800781 112.894531 129.03125 112.738281 129.320312 C 112.578125 129.605469 112.5 129.914062 112.5 130.242188 L 112.5 171.460938 C 112.5 171.71875 112.550781 171.964844 112.648438 172.199219 C 112.746094 172.433594 112.882812 172.644531 113.066406 172.824219 C 113.246094 173.003906 113.453125 173.144531 113.691406 173.242188 C 113.925781 173.339844 114.171875 173.386719 114.429688 173.386719 L 153.9375 173.386719 L 153.9375 212.777344 C 153.9375 213.035156 153.988281 213.277344 154.085938 213.515625 C 154.183594 213.75 154.320312 213.960938 154.503906 214.140625 C 154.683594 214.320312 154.890625 214.460938 155.128906 214.558594 C 155.363281 214.65625 155.609375 214.703125 155.867188 214.703125 L 197.3125 214.703125 C 197.835938 214.703125 198.289062 214.519531 198.664062 214.152344 L 198.671875 214.140625 L 198.675781 214.140625 L 261.921875 152.011719 C 262.308594 151.632812 262.5 151.175781 262.5 150.636719 Z M 262.5 107.542969 " fill-opacity="1" fill-rule="nonzero"/></g><path fill="#35ff45" d="M 157.796875 90.875 L 195.382812 90.875 L 195.382812 128.316406 L 157.796875 128.316406 Z M 157.796875 90.875 " fill-opacity="1" fill-rule="nonzero"/><path fill="#35ff45" d="M 157.796875 173.386719 L 195.382812 173.386719 L 195.382812 210.851562 L 157.796875 210.851562 Z M 157.796875 173.386719 " fill-opacity="1" fill-rule="nonzero"/><path fill="#4588ff" d="M 153.9375 128.316406 L 119.15625 128.316406 L 153.9375 93.640625 Z M 153.9375 128.316406 " fill-opacity="1" fill-rule="nonzero"/><path fill="#4588ff" d="M 217.738281 106.753906 L 199.238281 125.539062 L 199.238281 90.242188 L 217.738281 72.011719 Z M 217.738281 106.753906 " fill-opacity="1" fill-rule="nonzero"/><path fill="#4588ff" d="M 234.660156 173.386719 L 199.238281 208.179688 L 199.238281 173.386719 Z M 234.660156 173.386719 " fill-opacity="1" fill-rule="nonzero"/><path fill="#4588ff" d="M 237.992188 128.316406 L 201.914062 128.316406 L 220.476562 109.46875 L 256.054688 109.46875 Z M 237.992188 128.316406 " fill-opacity="1" fill-rule="nonzero"/><path fill="#4588ff" d="M 178.320312 69.328125 L 214.96875 69.328125 L 197.011719 87.023438 L 160.574219 87.023438 Z M 178.320312 69.328125 " fill-opacity="1" fill-rule="nonzero"/><path fill="#4588ff" d="M 240.746094 167.410156 L 240.746094 131.015625 L 258.640625 112.339844 L 258.640625 149.828125 Z M 240.746094 167.410156 " fill-opacity="1" fill-rule="nonzero"/><path fill="#fcfcfc" d="M 157.796875 132.171875 L 195.382812 132.171875 L 195.382812 169.535156 L 157.796875 169.535156 Z M 157.796875 132.171875 " fill-opacity="1" fill-rule="nonzero"/><path fill="#35ff45" d="M 199.238281 132.171875 L 236.820312 132.171875 L 236.820312 169.535156 L 199.238281 169.535156 Z M 199.238281 132.171875 " fill-opacity="1" fill-rule="nonzero"/><path fill="#35ff45" d="M 116.359375 132.171875 L 153.9375 132.171875 L 153.9375 169.535156 L 116.359375 169.535156 Z M 116.359375 132.171875 " fill-opacity="1" fill-rule="nonzero"/></svg>