<svg xmlns="http://www.w3.org/2000/svg" xmlns:xlink="http://www.w3.org/1999/xlink" width="500" zoomAndPan="magnify" viewBox="0 0 375 374.999991" height="500" preserveAspectRatio="xMidYMid meet" version="1.0"><defs><clipPath id="abe143d759"><path d="M 112.5 112.773438 L 262.5 112.773438 L 262.5 262.023438 L 112.5 262.023438 Z M 112.5 112.773438 " clip-rule="nonzero"/></clipPath></defs><g clip-path="url(#abe143d759)"><path fill="#4e4e4e" d="M 262.5 154.851562 C 262.5 154.59375 262.453125 154.347656 262.355469 154.113281 C 262.257812 153.875 262.121094 153.667969 261.9375 153.488281 C 261.757812 153.304688 261.550781 153.167969 261.3125 153.070312 C 261.078125 152.972656 260.832031 152.921875 260.574219 152.925781 L 221.597656 152.925781 L 221.597656 114.710938 L 221.589844 114.710938 C 221.59375 114.457031 221.546875 114.210938 221.449219 113.972656 C 221.351562 113.738281 221.214844 113.527344 221.03125 113.347656 C 220.851562 113.164062 220.644531 113.027344 220.40625 112.929688 C 220.167969 112.832031 219.921875 112.785156 219.667969 112.785156 L 177.523438 112.785156 C 176.992188 112.785156 176.535156 112.972656 176.160156 113.347656 L 154.761719 134.679688 C 154.578125 134.8125 154.421875 134.96875 154.292969 135.152344 L 113.386719 175.933594 C 113.113281 176.109375 112.894531 176.339844 112.738281 176.628906 C 112.578125 176.914062 112.5 177.222656 112.5 177.550781 L 112.5 218.769531 C 112.5 219.027344 112.550781 219.273438 112.648438 219.507812 C 112.746094 219.742188 112.882812 219.953125 113.066406 220.132812 C 113.246094 220.3125 113.453125 220.453125 113.691406 220.550781 C 113.925781 220.648438 114.171875 220.695312 114.429688 220.695312 L 153.9375 220.695312 L 153.9375 260.085938 C 153.9375 260.34375 153.988281 260.585938 154.085938 260.824219 C 154.183594 261.058594 154.320312 261.269531 154.503906 261.449219 C 154.683594 261.628906 154.890625 261.769531 155.128906 261.867188 C 155.363281 261.964844 155.609375 262.011719 155.867188 262.011719 L 197.3125 262.011719 C 197.835938 262.011719 198.289062 261.828125 198.664062 261.457031 L 198.671875 261.449219 L 198.675781 261.449219 L 261.921875 199.320312 C 262.308594 198.941406 262.5 198.484375 262.5 197.945312 Z M 262.5 154.851562 " fill-opacity="1" fill-rule="nonzero"/></g><path fill="#35ff45" d="M 157.796875 138.183594 L 195.382812 138.183594 L 195.382812 175.625 L 157.796875 175.625 Z M 157.796875 138.183594 " fill-opacity="1" fill-rule="nonzero"/><path fill="#35ff45" d="M 157.796875 220.695312 L 195.382812 220.695312 L 195.382812 258.160156 L 157.796875 258.160156 Z M 157.796875 220.695312 " fill-opacity="1" fill-rule="nonzero"/><path fill="#4588ff" d="M 153.9375 175.625 L 119.15625 175.625 L 153.9375 140.949219 Z M 153.9375 175.625 " fill-opacity="1" fill-rule="nonzero"/><path fill="#4588ff" d="M 217.738281 154.0625 L 199.238281 172.847656 L 199.238281 137.550781 L 217.738281 119.320312 Z M 217.738281 154.0625 " fill-opacity="1" fill-rule="nonzero"/><path fill="#4588ff" d="M 234.660156 220.695312 L 199.238281 255.488281 L 199.238281 220.695312 Z M 234.660156 220.695312 " fill-opacity="1" fill-rule="nonzero"/><path fill="#4588ff" d="M 237.992188 175.625 L 201.914062 175.625 L 220.476562 156.777344 L 256.054688 156.777344 Z M 237.992188 175.625 " fill-opacity="1" fill-rule="nonzero"/><path fill="#4588ff" d="M 178.320312 116.636719 L 214.96875 116.636719 L 197.011719 134.332031 L 160.574219 134.332031 Z M 178.320312 116.636719 " fill-opacity="1" fill-rule="nonzero"/><path fill="#4588ff" d="M 240.746094 214.714844 L 240.746094 178.324219 L 258.640625 159.648438 L 258.640625 197.132812 Z M 240.746094 214.714844 " fill-opacity="1" fill-rule="nonzero"/><path fill="#fcfcfc" d="M 157.796875 179.480469 L 195.382812 179.480469 L 195.382812 216.84375 L 157.796875 216.84375 Z M 157.796875 179.480469 " fill-opacity="1" fill-rule="nonzero"/><path fill="#35ff45" d="M 199.238281 179.480469 L 236.820312 179.480469 L 236.820312 216.84375 L 199.238281 216.84375 Z M 199.238281 179.480469 " fill-opacity="1" fill-rule="nonzero"/><path fill="#35ff45" d="M 116.359375 179.480469 L 153.9375 179.480469 L 153.9375 216.84375 L 116.359375 216.84375 Z M 116.359375 179.480469 " fill-opacity="1" fill-rule="nonzero"/></svg>